<mxfile host="Electron" modified="2023-04-28T22:21:59.663Z" agent="Mozilla/5.0 (Windows NT 10.0; Win64; x64) AppleWebKit/537.36 (KHTML, like Gecko) draw.io/21.2.1 Chrome/112.0.5615.87 Electron/24.1.2 Safari/537.36" etag="dBrlLxFziT8uFzz3LG7F" version="21.2.1" type="device" pages="6">
  <diagram id="O5ZGdLMJUJV76lF6uW-R" name="OneOffValues">
    <mxGraphModel dx="2058" dy="1180" grid="1" gridSize="10" guides="1" tooltips="1" connect="1" arrows="1" fold="1" page="1" pageScale="1" pageWidth="850" pageHeight="1100" math="0" shadow="0">
      <root>
        <mxCell id="0" />
        <mxCell id="1" parent="0" />
        <mxCell id="Pw2uXjZyQBZsSXZyXE9m-1" value="&lt;u style=&quot;font-weight: bold;&quot;&gt;Soft Cap:&lt;/u&gt;&lt;br&gt;&lt;br&gt;10k (icy tempest boost applies to this for melee)" style="text;html=1;strokeColor=default;fillColor=none;align=center;verticalAlign=middle;whiteSpace=wrap;rounded=1;strokeWidth=2;glass=0;fontSize=16;" parent="1" vertex="1">
          <mxGeometry x="20" y="20" width="360" height="100" as="geometry" />
        </mxCell>
        <mxCell id="JfroG42DJJxtULVLSqRb-1" value="&lt;u style=&quot;font-weight: bold;&quot;&gt;Crit Cap:&lt;/u&gt;&lt;br&gt;&lt;br&gt;12k w/o Grim, 15k w/&lt;br&gt;Multiply by smoke cloud based on style &amp;amp; icy tempest here as well" style="text;html=1;strokeColor=default;fillColor=none;align=center;verticalAlign=middle;whiteSpace=wrap;rounded=1;strokeWidth=2;glass=0;fontSize=16;" parent="1" vertex="1">
          <mxGeometry x="460" y="30" width="360" height="180" as="geometry" />
        </mxCell>
        <mxCell id="JfroG42DJJxtULVLSqRb-2" value="&lt;u style=&quot;font-weight: bold;&quot;&gt;Bleeds not affected by:&lt;/u&gt;&lt;br&gt;&lt;br&gt;Prayers&lt;br&gt;Ults (minus meta)&lt;br&gt;ZGS&lt;br&gt;Berserker Fury relic&lt;br&gt;Precise, equilibrium&lt;br&gt;Crits" style="text;html=1;strokeColor=default;fillColor=none;align=center;verticalAlign=middle;whiteSpace=wrap;rounded=1;strokeWidth=2;glass=0;fontSize=16;" parent="1" vertex="1">
          <mxGeometry x="30" y="150" width="360" height="180" as="geometry" />
        </mxCell>
        <mxCell id="JfroG42DJJxtULVLSqRb-3" value="&lt;u style=&quot;font-weight: bold;&quot;&gt;Bleeds affected by:&lt;/u&gt;&lt;br&gt;&lt;br&gt;Equipment damage bonus&lt;br&gt;Visible boosts&lt;br&gt;Vuln&lt;br&gt;Zerk style auras (invisible boost negated under ult)&lt;br&gt;Mahjarrat and dark magic (does work with db ult)&lt;br&gt;Scrims&lt;br&gt;Wen arrows icy precision&lt;br&gt;" style="text;html=1;strokeColor=default;fillColor=none;align=center;verticalAlign=middle;whiteSpace=wrap;rounded=1;strokeWidth=2;glass=0;fontSize=16;" parent="1" vertex="1">
          <mxGeometry x="460" y="240" width="360" height="220" as="geometry" />
        </mxCell>
        <mxCell id="JfroG42DJJxtULVLSqRb-4" value="Include ful arrows with prayer mod for range" style="text;html=1;strokeColor=default;fillColor=none;align=center;verticalAlign=middle;whiteSpace=wrap;rounded=1;strokeWidth=2;glass=0;fontSize=16;" parent="1" vertex="1">
          <mxGeometry x="30" y="390" width="360" height="70" as="geometry" />
        </mxCell>
        <mxCell id="JfroG42DJJxtULVLSqRb-5" value="&lt;b&gt;&lt;u&gt;Speed Multipliers&lt;br&gt;&lt;/u&gt;&lt;/b&gt;&lt;br&gt;Fastest: 1, 1&lt;br&gt;Fast: 1.25, (12.25 / 9.6)&lt;br&gt;Average: 1.5, (14.9 / 9.6)" style="text;html=1;strokeColor=default;fillColor=none;align=center;verticalAlign=middle;whiteSpace=wrap;rounded=1;strokeWidth=2;glass=0;fontSize=16;" parent="1" vertex="1">
          <mxGeometry x="30" y="500" width="360" height="140" as="geometry" />
        </mxCell>
        <mxCell id="JfroG42DJJxtULVLSqRb-6" value="&lt;u style=&quot;font-weight: bold;&quot;&gt;Weapon Handedness&lt;/u&gt;&lt;br&gt;&lt;br&gt;2H: 1.5, 3.75&lt;br&gt;MH: 1, 2.5&lt;br&gt;OH: .5, 1.25" style="text;html=1;strokeColor=default;fillColor=none;align=center;verticalAlign=middle;whiteSpace=wrap;rounded=1;strokeWidth=2;glass=0;fontSize=16;" parent="1" vertex="1">
          <mxGeometry x="460" y="500" width="360" height="140" as="geometry" />
        </mxCell>
      </root>
    </mxGraphModel>
  </diagram>
  <diagram id="z-leryvoxbCBuE2agM1M" name="BasicDamageDescriptions">
    <mxGraphModel dx="2058" dy="1180" grid="1" gridSize="10" guides="1" tooltips="1" connect="1" arrows="1" fold="1" page="1" pageScale="1" pageWidth="850" pageHeight="1100" math="0" shadow="0">
      <root>
        <mxCell id="0" />
        <mxCell id="1" parent="0" />
        <mxCell id="3tEKT17e3-8P0HFKqB4m-1" value="&lt;u style=&quot;font-weight: bold;&quot;&gt;Weapon Damage&lt;/u&gt;&lt;br&gt;&lt;br&gt;RoundDown(9.6 * SpeedMultipliersColumn2 * damage tier * WeaponHandednessColumn1)" style="text;html=1;strokeColor=default;fillColor=none;align=center;verticalAlign=middle;whiteSpace=wrap;rounded=1;strokeWidth=2;glass=0;fontSize=16;" parent="1" vertex="1">
          <mxGeometry x="40" y="30" width="800" height="100" as="geometry" />
        </mxCell>
        <mxCell id="t1ZLdY_h_xYbedeaKxj3-1" value="&lt;u style=&quot;font-weight: bold;&quot;&gt;Skill Bonus&lt;/u&gt;&lt;br&gt;&lt;br&gt;Round((visible boosted cmb lvl * WeaponHandednessColumn2 - 1) * SpeedMultipliersColumn1)" style="text;html=1;strokeColor=default;fillColor=none;align=center;verticalAlign=middle;whiteSpace=wrap;rounded=1;strokeWidth=2;glass=0;fontSize=16;" parent="1" vertex="1">
          <mxGeometry x="40" y="150" width="800" height="100" as="geometry" />
        </mxCell>
        <mxCell id="xbGdDw3RBTG-l5P9SpnW-1" value="&lt;u style=&quot;font-weight: bold;&quot;&gt;Combat Style Bonus&lt;/u&gt;&lt;br&gt;&lt;br&gt;Round(SpeedMultipliersColumn2 * Equipped Bonus * WeaponHandednessColumn1)" style="text;html=1;strokeColor=default;fillColor=none;align=center;verticalAlign=middle;whiteSpace=wrap;rounded=1;strokeWidth=2;glass=0;fontSize=16;" parent="1" vertex="1">
          <mxGeometry x="40" y="270" width="800" height="110" as="geometry" />
        </mxCell>
        <mxCell id="xbGdDw3RBTG-l5P9SpnW-2" value="&lt;u style=&quot;font-weight: bold;&quot;&gt;Auto Damage&lt;/u&gt;&lt;br&gt;&lt;br&gt;WeaponDamage + Skill Bonus + Combat Style Bonus&lt;br&gt;If using hexhunter or equivalent, multiply by value (1.125 or 1.175 depending on if enchantment is unlocked)&lt;br&gt;RoundDown" style="text;html=1;strokeColor=default;fillColor=none;align=center;verticalAlign=middle;whiteSpace=wrap;rounded=1;strokeWidth=2;glass=0;fontSize=16;" parent="1" vertex="1">
          <mxGeometry x="40" y="640" width="800" height="130" as="geometry" />
        </mxCell>
        <mxCell id="xbGdDw3RBTG-l5P9SpnW-3" value="&lt;u style=&quot;font-weight: bold;&quot;&gt;Ability Damage&lt;/u&gt;&lt;br&gt;&lt;br&gt;RoundDown(Damage Tier * 9.6 * WeaponHandednessColumn1)&lt;br&gt;+&lt;br&gt;RoundDown(BoostedLevel * WeaponHandednessColumn2)&lt;br&gt;+&lt;br&gt;RoundDown(Equipped Bonus * WeaponHandednessColumn1)&lt;br&gt;&lt;br&gt;If using hexhunter or equivalent, multiply by value (1.125 or 1.175 depending on if enchantment is unlocked)&lt;br&gt;RoundDown" style="text;html=1;strokeColor=default;fillColor=none;align=center;verticalAlign=middle;whiteSpace=wrap;rounded=1;strokeWidth=2;glass=0;fontSize=16;" parent="1" vertex="1">
          <mxGeometry x="40" y="790" width="800" height="210" as="geometry" />
        </mxCell>
        <mxCell id="xbGdDw3RBTG-l5P9SpnW-4" value="&lt;u style=&quot;font-weight: bold;&quot;&gt;Bleed Inclusive&lt;/u&gt;&amp;nbsp; &lt;br&gt;*set bleedexclusive to 1 to start&lt;br&gt;&lt;br&gt;(1 + PocketDamageIncrease)&lt;br&gt;*&lt;br&gt;(1 + vuln increase)&lt;br&gt;*&lt;br&gt;(1 + BleedInclusive)&lt;br&gt;*&lt;br&gt;Aura modifier" style="text;html=1;strokeColor=default;fillColor=none;align=center;verticalAlign=middle;whiteSpace=wrap;rounded=1;strokeWidth=2;glass=0;fontSize=16;" parent="1" vertex="1">
          <mxGeometry x="40" y="410" width="800" height="210" as="geometry" />
        </mxCell>
        <mxCell id="xbGdDw3RBTG-l5P9SpnW-5" value="&lt;u style=&quot;font-weight: bold;&quot;&gt;Crit Exclusive&lt;/u&gt;&lt;br&gt;&lt;br&gt;*Mage crit increase only applies to channel abilities&lt;br&gt;&lt;br&gt;smoke cloud crit damage increase * combat style ring crit increase" style="text;html=1;strokeColor=default;fillColor=none;align=center;verticalAlign=middle;whiteSpace=wrap;rounded=1;strokeWidth=2;glass=0;fontSize=16;" parent="1" vertex="1">
          <mxGeometry x="40" y="1030" width="800" height="140" as="geometry" />
        </mxCell>
      </root>
    </mxGraphModel>
  </diagram>
  <diagram id="zaaQ8saFnKMGcqH_sWg0" name="DamageCalcFlow">
    <mxGraphModel dx="2058" dy="1180" grid="1" gridSize="10" guides="1" tooltips="1" connect="1" arrows="1" fold="1" page="1" pageScale="1" pageWidth="850" pageHeight="1100" math="0" shadow="0">
      <root>
        <mxCell id="0" />
        <mxCell id="1" parent="0" />
        <mxCell id="MPELfuBpqYPwfIU7xHQQ-2" value="&lt;u style=&quot;font-weight: bold;&quot;&gt;Style Specific Ability Damage&lt;br&gt;&lt;/u&gt;&lt;br&gt;*some super ability specific weird edge cases&lt;br&gt;&lt;br&gt;Range - Wen arrows (2% for thresh, 3% for ults, specs excluded for use and building, does boost thresh/ult bleeds)&lt;br&gt;Melee - Chaos roar boost (only applies to first hit of channeled abilities but does include all of hurricane, ezk &amp;amp; dclaw specs)" style="text;html=1;strokeColor=default;fillColor=none;align=center;verticalAlign=middle;whiteSpace=wrap;rounded=1;strokeWidth=2;glass=0;fontSize=16;" parent="1" vertex="1">
          <mxGeometry x="10" y="20" width="830" height="180" as="geometry" />
        </mxCell>
        <mxCell id="MPELfuBpqYPwfIU7xHQQ-3" value="&lt;u style=&quot;font-weight: bold;&quot;&gt;Base Fixed&lt;/u&gt;&lt;br&gt;&lt;br&gt;RoundDown(BaseMin * AbilityDamage)&lt;br&gt;1 for autos" style="text;html=1;strokeColor=default;fillColor=none;align=center;verticalAlign=middle;whiteSpace=wrap;rounded=1;strokeWidth=2;glass=0;fontSize=16;" parent="1" vertex="1">
          <mxGeometry x="10" y="320" width="360" height="160" as="geometry" />
        </mxCell>
        <mxCell id="MPELfuBpqYPwfIU7xHQQ-4" value="&lt;u style=&quot;font-weight: bold;&quot;&gt;Base Variable&lt;/u&gt;&lt;br&gt;&lt;br&gt;RoundDown(BaseVar * AbilityDamage)&lt;br&gt;Auto value for autos (duh)" style="text;html=1;strokeColor=default;fillColor=none;align=center;verticalAlign=middle;whiteSpace=wrap;rounded=1;strokeWidth=2;glass=0;fontSize=16;" parent="1" vertex="1">
          <mxGeometry x="480" y="320" width="360" height="160" as="geometry" />
        </mxCell>
        <mxCell id="MPELfuBpqYPwfIU7xHQQ-5" value="" style="endArrow=classic;html=1;rounded=0;exitX=0.239;exitY=1.011;exitDx=0;exitDy=0;exitPerimeter=0;" parent="1" source="MPELfuBpqYPwfIU7xHQQ-2" target="MPELfuBpqYPwfIU7xHQQ-3" edge="1">
          <mxGeometry width="50" height="50" relative="1" as="geometry">
            <mxPoint x="870" y="580" as="sourcePoint" />
            <mxPoint x="920" y="530" as="targetPoint" />
          </mxGeometry>
        </mxCell>
        <mxCell id="MPELfuBpqYPwfIU7xHQQ-6" value="" style="endArrow=classic;html=1;rounded=0;exitX=0.759;exitY=1.017;exitDx=0;exitDy=0;exitPerimeter=0;" parent="1" source="MPELfuBpqYPwfIU7xHQQ-2" target="MPELfuBpqYPwfIU7xHQQ-4" edge="1">
          <mxGeometry width="50" height="50" relative="1" as="geometry">
            <mxPoint x="870" y="580" as="sourcePoint" />
            <mxPoint x="920" y="530" as="targetPoint" />
          </mxGeometry>
        </mxCell>
        <mxCell id="MPELfuBpqYPwfIU7xHQQ-7" value="&lt;b&gt;&lt;u&gt;Prayer Variable&lt;br&gt;&lt;br&gt;&lt;/u&gt;&lt;/b&gt;If not a bleed&lt;br style=&quot;border-color: var(--border-color);&quot;&gt;RoundDown(BaseVar * Modifier)&lt;b&gt;&lt;u&gt;&lt;br&gt;&lt;/u&gt;&lt;/b&gt;" style="text;html=1;strokeColor=default;fillColor=none;align=center;verticalAlign=middle;whiteSpace=wrap;rounded=1;strokeWidth=2;glass=0;fontSize=16;" parent="1" vertex="1">
          <mxGeometry x="480" y="560" width="360" height="140" as="geometry" />
        </mxCell>
        <mxCell id="MPELfuBpqYPwfIU7xHQQ-8" value="&lt;u style=&quot;font-weight: bold;&quot;&gt;Prayer Fixed&lt;/u&gt;&lt;br&gt;&lt;br&gt;If not a bleed&lt;br&gt;RoundDown(BaseFixed * Modifier)" style="text;html=1;strokeColor=default;fillColor=none;align=center;verticalAlign=middle;whiteSpace=wrap;rounded=1;strokeWidth=2;glass=0;fontSize=16;" parent="1" vertex="1">
          <mxGeometry x="10" y="560" width="360" height="140" as="geometry" />
        </mxCell>
        <mxCell id="MPELfuBpqYPwfIU7xHQQ-9" value="" style="endArrow=classic;html=1;rounded=0;exitX=0.5;exitY=1;exitDx=0;exitDy=0;entryX=0.5;entryY=0;entryDx=0;entryDy=0;" parent="1" source="MPELfuBpqYPwfIU7xHQQ-3" target="MPELfuBpqYPwfIU7xHQQ-8" edge="1">
          <mxGeometry width="50" height="50" relative="1" as="geometry">
            <mxPoint x="870" y="490" as="sourcePoint" />
            <mxPoint x="920" y="440" as="targetPoint" />
          </mxGeometry>
        </mxCell>
        <mxCell id="MPELfuBpqYPwfIU7xHQQ-10" value="" style="endArrow=classic;html=1;rounded=0;exitX=0.5;exitY=1;exitDx=0;exitDy=0;entryX=0.5;entryY=0;entryDx=0;entryDy=0;" parent="1" source="MPELfuBpqYPwfIU7xHQQ-4" target="MPELfuBpqYPwfIU7xHQQ-7" edge="1">
          <mxGeometry width="50" height="50" relative="1" as="geometry">
            <mxPoint x="200" y="490" as="sourcePoint" />
            <mxPoint x="200" y="590" as="targetPoint" />
          </mxGeometry>
        </mxCell>
        <mxCell id="SiPVFXNMxGLSEXp_hPTZ-1" value="&lt;u style=&quot;font-weight: bold;&quot;&gt;DPL Fixed&lt;/u&gt;&lt;br&gt;&lt;br&gt;If not a bleed&lt;br&gt;PrayerFixed + 4 * Max(0, LvlBoostAmount)" style="text;html=1;strokeColor=default;fillColor=none;align=center;verticalAlign=middle;whiteSpace=wrap;rounded=1;strokeWidth=2;glass=0;fontSize=16;" parent="1" vertex="1">
          <mxGeometry x="10" y="760" width="360" height="120" as="geometry" />
        </mxCell>
        <mxCell id="SiPVFXNMxGLSEXp_hPTZ-2" value="&lt;u style=&quot;font-weight: bold;&quot;&gt;DPL Variable&lt;/u&gt;&lt;br&gt;&lt;br&gt;If not a bleed&lt;br&gt;PrayerVariable + 4 * Max(0, LvlBoostAmount)" style="text;html=1;strokeColor=default;fillColor=none;align=center;verticalAlign=middle;whiteSpace=wrap;rounded=1;strokeWidth=2;glass=0;fontSize=16;" parent="1" vertex="1">
          <mxGeometry x="480" y="760" width="360" height="120" as="geometry" />
        </mxCell>
        <mxCell id="SiPVFXNMxGLSEXp_hPTZ-3" value="" style="endArrow=classic;html=1;rounded=0;exitX=0.5;exitY=1;exitDx=0;exitDy=0;entryX=0.5;entryY=0;entryDx=0;entryDy=0;" parent="1" source="MPELfuBpqYPwfIU7xHQQ-8" target="SiPVFXNMxGLSEXp_hPTZ-1" edge="1">
          <mxGeometry width="50" height="50" relative="1" as="geometry">
            <mxPoint x="400" y="530" as="sourcePoint" />
            <mxPoint x="450" y="480" as="targetPoint" />
          </mxGeometry>
        </mxCell>
        <mxCell id="SiPVFXNMxGLSEXp_hPTZ-4" value="" style="endArrow=classic;html=1;rounded=0;exitX=0.5;exitY=1;exitDx=0;exitDy=0;entryX=0.5;entryY=0;entryDx=0;entryDy=0;" parent="1" source="MPELfuBpqYPwfIU7xHQQ-7" target="SiPVFXNMxGLSEXp_hPTZ-2" edge="1">
          <mxGeometry width="50" height="50" relative="1" as="geometry">
            <mxPoint x="400" y="530" as="sourcePoint" />
            <mxPoint x="450" y="480" as="targetPoint" />
          </mxGeometry>
        </mxCell>
        <mxCell id="SiPVFXNMxGLSEXp_hPTZ-5" value="&lt;u style=&quot;font-weight: bold;&quot;&gt;Precise Variable&lt;/u&gt;&lt;br&gt;&lt;br&gt;If not a bleed&lt;br&gt;DPLVariable&lt;br&gt;+&lt;br&gt;RoundDown(DPLTotal * PreciseRank * 1.5%)" style="text;html=1;strokeColor=default;fillColor=none;align=center;verticalAlign=middle;whiteSpace=wrap;rounded=1;strokeWidth=2;glass=0;fontSize=16;" parent="1" vertex="1">
          <mxGeometry x="480" y="960" width="360" height="160" as="geometry" />
        </mxCell>
        <mxCell id="SiPVFXNMxGLSEXp_hPTZ-6" value="&lt;u style=&quot;font-weight: bold;&quot;&gt;Precise Fixed&lt;/u&gt;&lt;br&gt;&lt;br&gt;If not a bleed&lt;br&gt;DPLFixed&lt;br&gt;+&lt;br&gt;RoundDown(DPLTotal * PreciseRank * 1.5%)" style="text;html=1;strokeColor=default;fillColor=none;align=center;verticalAlign=middle;whiteSpace=wrap;rounded=1;strokeWidth=2;glass=0;fontSize=16;" parent="1" vertex="1">
          <mxGeometry x="10" y="960" width="360" height="160" as="geometry" />
        </mxCell>
        <mxCell id="SiPVFXNMxGLSEXp_hPTZ-7" value="" style="endArrow=classic;html=1;rounded=0;exitX=0.5;exitY=1;exitDx=0;exitDy=0;" parent="1" source="SiPVFXNMxGLSEXp_hPTZ-1" target="SiPVFXNMxGLSEXp_hPTZ-6" edge="1">
          <mxGeometry width="50" height="50" relative="1" as="geometry">
            <mxPoint x="400" y="770" as="sourcePoint" />
            <mxPoint x="450" y="720" as="targetPoint" />
          </mxGeometry>
        </mxCell>
        <mxCell id="SiPVFXNMxGLSEXp_hPTZ-8" value="" style="endArrow=classic;html=1;rounded=0;exitX=0.5;exitY=1;exitDx=0;exitDy=0;entryX=0.5;entryY=0;entryDx=0;entryDy=0;" parent="1" source="SiPVFXNMxGLSEXp_hPTZ-2" target="SiPVFXNMxGLSEXp_hPTZ-5" edge="1">
          <mxGeometry width="50" height="50" relative="1" as="geometry">
            <mxPoint x="400" y="770" as="sourcePoint" />
            <mxPoint x="450" y="720" as="targetPoint" />
          </mxGeometry>
        </mxCell>
        <mxCell id="d6Nl2If4qcnQozubnwps-1" value="&lt;u style=&quot;font-weight: bold;&quot;&gt;Eq Variable&lt;/u&gt;&lt;br&gt;&lt;br&gt;If not a bleed&lt;br&gt;RoundDown(PVar * (1 - EqRank * 4%))" style="text;html=1;strokeColor=default;fillColor=none;align=center;verticalAlign=middle;whiteSpace=wrap;rounded=1;strokeWidth=2;glass=0;fontSize=16;" parent="1" vertex="1">
          <mxGeometry x="480" y="1200" width="360" height="160" as="geometry" />
        </mxCell>
        <mxCell id="d6Nl2If4qcnQozubnwps-2" value="&lt;u style=&quot;font-weight: bold;&quot;&gt;Eq Fixed&lt;/u&gt;&lt;br&gt;&lt;br&gt;If not a bleed&lt;br&gt;PFixed&lt;br&gt;+&lt;br&gt;RoundDown(PVar * EqRank * 3%)" style="text;html=1;strokeColor=default;fillColor=none;align=center;verticalAlign=middle;whiteSpace=wrap;rounded=1;strokeWidth=2;glass=0;fontSize=16;" parent="1" vertex="1">
          <mxGeometry x="10" y="1200" width="360" height="160" as="geometry" />
        </mxCell>
        <mxCell id="d6Nl2If4qcnQozubnwps-3" value="" style="endArrow=classic;html=1;rounded=0;exitX=0.5;exitY=1;exitDx=0;exitDy=0;" parent="1" source="SiPVFXNMxGLSEXp_hPTZ-6" target="d6Nl2If4qcnQozubnwps-2" edge="1">
          <mxGeometry width="50" height="50" relative="1" as="geometry">
            <mxPoint x="400" y="1270" as="sourcePoint" />
            <mxPoint x="450" y="1220" as="targetPoint" />
          </mxGeometry>
        </mxCell>
        <mxCell id="d6Nl2If4qcnQozubnwps-4" value="" style="endArrow=classic;html=1;rounded=0;exitX=0.5;exitY=1;exitDx=0;exitDy=0;entryX=0.5;entryY=0;entryDx=0;entryDy=0;" parent="1" source="SiPVFXNMxGLSEXp_hPTZ-5" target="d6Nl2If4qcnQozubnwps-1" edge="1">
          <mxGeometry width="50" height="50" relative="1" as="geometry">
            <mxPoint x="400" y="1270" as="sourcePoint" />
            <mxPoint x="450" y="1220" as="targetPoint" />
          </mxGeometry>
        </mxCell>
        <mxCell id="Yf0ulRKdicDt6KRX15Aq-1" value="&lt;u style=&quot;font-weight: bold;&quot;&gt;Base Min &amp;amp; Max&lt;/u&gt;&lt;br&gt;&lt;br&gt;Min - EqFixed&lt;br&gt;Max - EqFixed + EqVariable" style="text;html=1;strokeColor=default;fillColor=none;align=center;verticalAlign=middle;whiteSpace=wrap;rounded=1;strokeWidth=2;glass=0;fontSize=16;" parent="1" vertex="1">
          <mxGeometry x="245" y="1440" width="360" height="160" as="geometry" />
        </mxCell>
        <mxCell id="Yf0ulRKdicDt6KRX15Aq-2" value="" style="endArrow=classic;html=1;rounded=0;exitX=0.5;exitY=1;exitDx=0;exitDy=0;entryX=0.25;entryY=0;entryDx=0;entryDy=0;" parent="1" source="d6Nl2If4qcnQozubnwps-2" target="Yf0ulRKdicDt6KRX15Aq-1" edge="1">
          <mxGeometry width="50" height="50" relative="1" as="geometry">
            <mxPoint x="400" y="1470" as="sourcePoint" />
            <mxPoint x="450" y="1420" as="targetPoint" />
          </mxGeometry>
        </mxCell>
        <mxCell id="Yf0ulRKdicDt6KRX15Aq-3" value="" style="endArrow=classic;html=1;rounded=0;exitX=0.5;exitY=1;exitDx=0;exitDy=0;entryX=0.75;entryY=0;entryDx=0;entryDy=0;" parent="1" source="d6Nl2If4qcnQozubnwps-1" target="Yf0ulRKdicDt6KRX15Aq-1" edge="1">
          <mxGeometry width="50" height="50" relative="1" as="geometry">
            <mxPoint x="400" y="1470" as="sourcePoint" />
            <mxPoint x="450" y="1420" as="targetPoint" />
          </mxGeometry>
        </mxCell>
        <mxCell id="Yf0ulRKdicDt6KRX15Aq-4" value="&lt;u style=&quot;font-weight: bold;&quot;&gt;Final Max&lt;/u&gt;&lt;br&gt;&lt;br&gt;RoundDown(BaseMax * BleedInclusive&lt;br&gt;*&lt;br&gt;(BleedExclusive if not a bleed)&lt;br&gt;*&lt;br&gt;CritExclusive)" style="text;html=1;strokeColor=default;fillColor=none;align=center;verticalAlign=middle;whiteSpace=wrap;rounded=1;strokeWidth=2;glass=0;fontSize=16;" parent="1" vertex="1">
          <mxGeometry x="480" y="1680" width="360" height="160" as="geometry" />
        </mxCell>
        <mxCell id="Yf0ulRKdicDt6KRX15Aq-5" value="&lt;u style=&quot;font-weight: bold;&quot;&gt;Final Min&lt;/u&gt;&lt;br&gt;&lt;br&gt;RoundDown(BaseMin * BleedInclusive&lt;br&gt;*&lt;br&gt;(BleedExclusive if not a bleed))" style="text;html=1;strokeColor=default;fillColor=none;align=center;verticalAlign=middle;whiteSpace=wrap;rounded=1;strokeWidth=2;glass=0;fontSize=16;" parent="1" vertex="1">
          <mxGeometry x="10" y="1680" width="360" height="160" as="geometry" />
        </mxCell>
        <mxCell id="Yf0ulRKdicDt6KRX15Aq-6" value="" style="endArrow=classic;html=1;rounded=0;exitX=0.25;exitY=1;exitDx=0;exitDy=0;entryX=0.5;entryY=0;entryDx=0;entryDy=0;" parent="1" source="Yf0ulRKdicDt6KRX15Aq-1" target="Yf0ulRKdicDt6KRX15Aq-5" edge="1">
          <mxGeometry width="50" height="50" relative="1" as="geometry">
            <mxPoint x="400" y="1770" as="sourcePoint" />
            <mxPoint x="450" y="1720" as="targetPoint" />
          </mxGeometry>
        </mxCell>
        <mxCell id="Yf0ulRKdicDt6KRX15Aq-7" value="" style="endArrow=classic;html=1;rounded=0;exitX=0.75;exitY=1;exitDx=0;exitDy=0;entryX=0.5;entryY=0;entryDx=0;entryDy=0;" parent="1" source="Yf0ulRKdicDt6KRX15Aq-1" target="Yf0ulRKdicDt6KRX15Aq-4" edge="1">
          <mxGeometry width="50" height="50" relative="1" as="geometry">
            <mxPoint x="400" y="1770" as="sourcePoint" />
            <mxPoint x="450" y="1720" as="targetPoint" />
          </mxGeometry>
        </mxCell>
        <mxCell id="bX9yMWQqc5x9RV4N5tRL-1" value="" style="endArrow=none;dashed=1;html=1;dashPattern=1 3;strokeWidth=2;rounded=0;" parent="1" edge="1">
          <mxGeometry width="50" height="50" relative="1" as="geometry">
            <mxPoint x="190" y="890" as="sourcePoint" />
            <mxPoint x="660" y="890" as="targetPoint" />
          </mxGeometry>
        </mxCell>
        <mxCell id="bX9yMWQqc5x9RV4N5tRL-2" value="* See: &lt;br&gt;MeleeSpecifics1 (Gloves of Passage)&lt;br&gt;MeleeSpecifics3 (Berserk)" style="text;html=1;strokeColor=none;fillColor=none;align=center;verticalAlign=middle;whiteSpace=wrap;rounded=0;" parent="1" vertex="1">
          <mxGeometry x="280" y="880" width="320" height="80" as="geometry" />
        </mxCell>
        <mxCell id="P6kJjQLizICRrOFS_sYM-1" value="" style="endArrow=none;dashed=1;html=1;dashPattern=1 3;strokeWidth=2;rounded=0;exitX=0.5;exitY=1;exitDx=0;exitDy=0;" parent="1" source="Yf0ulRKdicDt6KRX15Aq-5" edge="1">
          <mxGeometry width="50" height="50" relative="1" as="geometry">
            <mxPoint x="400" y="1720" as="sourcePoint" />
            <mxPoint x="420" y="1960" as="targetPoint" />
          </mxGeometry>
        </mxCell>
        <mxCell id="P6kJjQLizICRrOFS_sYM-2" value="" style="endArrow=none;dashed=1;html=1;dashPattern=1 3;strokeWidth=2;rounded=0;exitX=0.5;exitY=1;exitDx=0;exitDy=0;" parent="1" source="Yf0ulRKdicDt6KRX15Aq-4" edge="1">
          <mxGeometry width="50" height="50" relative="1" as="geometry">
            <mxPoint x="400" y="1720" as="sourcePoint" />
            <mxPoint x="420" y="1960" as="targetPoint" />
          </mxGeometry>
        </mxCell>
        <mxCell id="P6kJjQLizICRrOFS_sYM-3" value="*See:&lt;br&gt;MeleeSpecifics2 (ZGS)&lt;br&gt;MagicSpecifics1 (Sunshine)&lt;br&gt;MagicSpecifics2 (Meta)&lt;br&gt;RangeSpecifics1 (Death&#39;s Swiftness)&lt;br&gt;RangeSpecifics2 (ECB Spec)" style="text;html=1;strokeColor=none;fillColor=none;align=center;verticalAlign=top;whiteSpace=wrap;rounded=0;labelPosition=center;verticalLabelPosition=middle;" parent="1" vertex="1">
          <mxGeometry x="10" y="1970" width="830" height="220" as="geometry" />
        </mxCell>
      </root>
    </mxGraphModel>
  </diagram>
  <diagram id="PQs_M-wD1W7d1W57Hcs3" name="MeleeSpecifics">
    <mxGraphModel dx="2058" dy="1180" grid="1" gridSize="10" guides="1" tooltips="1" connect="1" arrows="1" fold="1" page="1" pageScale="1" pageWidth="850" pageHeight="1100" math="0" shadow="0">
      <root>
        <mxCell id="0" />
        <mxCell id="1" parent="0" />
        <mxCell id="kb91k9t8jYdWSRiczpa--1" value="&lt;u style=&quot;font-weight: bold;&quot;&gt;1 - (Enh) Gloves of Passage&lt;/u&gt;&lt;br&gt;&lt;br&gt;Gloves of passage boost goes here&lt;br&gt;&lt;br&gt;10% non-bleed boost, 20% bleed boost&lt;br&gt;&lt;br&gt;If agony enchantment&lt;br&gt;16% non-bleed, 25% bleed" style="text;html=1;strokeColor=default;fillColor=none;align=center;verticalAlign=middle;whiteSpace=wrap;rounded=1;strokeWidth=2;glass=0;fontSize=16;" parent="1" vertex="1">
          <mxGeometry x="40" y="40" width="360" height="170" as="geometry" />
        </mxCell>
        <mxCell id="dJQhPOgjdK7UZIvNj1EN-1" value="&lt;u style=&quot;font-weight: bold;&quot;&gt;2 - ZGS Min&lt;/u&gt;&lt;br&gt;&lt;br&gt;If not a bleed&lt;br&gt;RoundDown(FinalMin * 1.25)" style="text;html=1;strokeColor=default;fillColor=none;align=center;verticalAlign=middle;whiteSpace=wrap;rounded=1;strokeWidth=2;glass=0;fontSize=16;" parent="1" vertex="1">
          <mxGeometry x="20" y="280" width="360" height="120" as="geometry" />
        </mxCell>
        <mxCell id="dJQhPOgjdK7UZIvNj1EN-2" value="&lt;u style=&quot;font-weight: bold;&quot;&gt;2 - ZGS Max&lt;/u&gt;&lt;br&gt;&lt;br&gt;If not a bleed&lt;br&gt;RoundDown(FinalMax * 1.25)" style="text;html=1;strokeColor=default;fillColor=none;align=center;verticalAlign=middle;whiteSpace=wrap;rounded=1;strokeWidth=2;glass=0;fontSize=16;" parent="1" vertex="1">
          <mxGeometry x="480" y="280" width="360" height="120" as="geometry" />
        </mxCell>
        <mxCell id="VICnu4QAau_ywfINQEC0-1" value="&lt;u style=&quot;font-weight: bold;&quot;&gt;Berserk Mod Var&lt;/u&gt;&lt;br&gt;&lt;br&gt;&amp;nbsp;Aura = 1.1 for zerk, 1 otherwise&lt;br&gt;&lt;br&gt;If bleed&lt;br&gt;RoundDown(DPLVar * (1 + PassageBoost) / Aura)&lt;br&gt;&lt;br&gt;If not a bleed&lt;br&gt;RoundDown(DPLVar * (2 + PassageBoost) / Aura)" style="text;html=1;strokeColor=default;fillColor=none;align=center;verticalAlign=middle;whiteSpace=wrap;rounded=1;strokeWidth=2;glass=0;fontSize=16;" parent="1" vertex="1">
          <mxGeometry x="480" y="520" width="360" height="240" as="geometry" />
        </mxCell>
        <mxCell id="VICnu4QAau_ywfINQEC0-2" value="&lt;u style=&quot;font-weight: bold;&quot;&gt;Berserk Mod Fixed&lt;/u&gt;&lt;br&gt;&lt;br&gt;Aura = 1.1 for zerk, 1 otherwise&lt;br&gt;&lt;br&gt;If bleed&lt;br&gt;RoundDown(DPLFixed * (1 + PassageBoost) / Aura)&lt;br&gt;&lt;br&gt;If not a bleed&lt;br&gt;RoundDown(DPLFixed * (2 + PassageBoost) / Aura)" style="text;html=1;strokeColor=default;fillColor=none;align=center;verticalAlign=middle;whiteSpace=wrap;rounded=1;strokeWidth=2;glass=0;fontSize=16;" parent="1" vertex="1">
          <mxGeometry x="20" y="520" width="360" height="240" as="geometry" />
        </mxCell>
        <mxCell id="VICnu4QAau_ywfINQEC0-3" value="" style="endArrow=none;html=1;rounded=0;" parent="1" edge="1">
          <mxGeometry width="50" height="50" relative="1" as="geometry">
            <mxPoint y="240" as="sourcePoint" />
            <mxPoint x="840" y="240" as="targetPoint" />
          </mxGeometry>
        </mxCell>
        <mxCell id="VICnu4QAau_ywfINQEC0-4" value="" style="endArrow=none;html=1;rounded=0;" parent="1" edge="1">
          <mxGeometry width="50" height="50" relative="1" as="geometry">
            <mxPoint y="440" as="sourcePoint" />
            <mxPoint x="840" y="440" as="targetPoint" />
          </mxGeometry>
        </mxCell>
        <mxCell id="lXe7O1O_LDOWXc0YXhon-1" value="3 - Berserker Flow" style="text;html=1;strokeColor=none;fillColor=none;align=center;verticalAlign=middle;whiteSpace=wrap;rounded=0;fontStyle=5;fontSize=19;" vertex="1" parent="1">
          <mxGeometry x="303" y="470" width="245" height="30" as="geometry" />
        </mxCell>
        <mxCell id="yawJxYqkO7viWhJQVl2c-1" value="" style="endArrow=none;dashed=1;html=1;dashPattern=1 3;strokeWidth=2;rounded=0;exitX=0.5;exitY=1;exitDx=0;exitDy=0;entryX=0.5;entryY=0;entryDx=0;entryDy=0;" edge="1" parent="1" source="VICnu4QAau_ywfINQEC0-2" target="yawJxYqkO7viWhJQVl2c-4">
          <mxGeometry width="50" height="50" relative="1" as="geometry">
            <mxPoint x="290" y="630" as="sourcePoint" />
            <mxPoint x="420" y="840" as="targetPoint" />
          </mxGeometry>
        </mxCell>
        <mxCell id="yawJxYqkO7viWhJQVl2c-2" value="" style="endArrow=none;dashed=1;html=1;dashPattern=1 3;strokeWidth=2;rounded=0;entryX=0.5;entryY=1;entryDx=0;entryDy=0;exitX=0.5;exitY=0;exitDx=0;exitDy=0;" edge="1" parent="1" source="yawJxYqkO7viWhJQVl2c-4" target="VICnu4QAau_ywfINQEC0-1">
          <mxGeometry width="50" height="50" relative="1" as="geometry">
            <mxPoint x="430" y="840" as="sourcePoint" />
            <mxPoint x="340" y="580" as="targetPoint" />
          </mxGeometry>
        </mxCell>
        <mxCell id="yawJxYqkO7viWhJQVl2c-4" value="Rest of the process continues as normal starting with Precise" style="text;html=1;strokeColor=default;fillColor=none;align=center;verticalAlign=middle;whiteSpace=wrap;rounded=1;strokeWidth=2;glass=0;fontSize=16;" vertex="1" parent="1">
          <mxGeometry x="245" y="840" width="360" height="120" as="geometry" />
        </mxCell>
      </root>
    </mxGraphModel>
  </diagram>
  <diagram id="fMjYpQL5f6BJBawAEAjL" name="MagicSpecfiics">
    <mxGraphModel dx="2058" dy="1180" grid="1" gridSize="10" guides="1" tooltips="1" connect="1" arrows="1" fold="1" page="1" pageScale="1" pageWidth="850" pageHeight="1100" math="0" shadow="0">
      <root>
        <mxCell id="0" />
        <mxCell id="1" parent="0" />
        <mxCell id="_XGMDUnI0bUt56lO3zVA-1" value="1 - Sunshine Flow" style="text;html=1;strokeColor=none;fillColor=none;align=center;verticalAlign=middle;whiteSpace=wrap;rounded=0;fontStyle=5;fontSize=16;" vertex="1" parent="1">
          <mxGeometry x="10" y="20" width="830" height="30" as="geometry" />
        </mxCell>
        <mxCell id="pYdLMDkK-e5EmxlcPeZ5-1" value="&lt;u style=&quot;font-weight: bold;&quot;&gt;Sunshine Final Min&lt;/u&gt;&lt;br&gt;&lt;br&gt;Aura = 1.1 if mani, 1 otherwise&lt;br&gt;&lt;br&gt;If bleed&lt;br&gt;RoundDown(FinalMin / Aura)&lt;br&gt;&lt;br&gt;If not a bleed&lt;br&gt;RoundDown(FinalMin / Aura * 1.5)" style="text;html=1;strokeColor=default;fillColor=none;align=center;verticalAlign=middle;whiteSpace=wrap;rounded=1;strokeWidth=2;glass=0;fontSize=16;" vertex="1" parent="1">
          <mxGeometry x="10" y="80" width="360" height="200" as="geometry" />
        </mxCell>
        <mxCell id="pYdLMDkK-e5EmxlcPeZ5-2" value="&lt;u style=&quot;font-weight: bold;&quot;&gt;Sunshine Final Max&lt;/u&gt;&lt;br&gt;&lt;br&gt;Aura = 1.1 if mani, 1 otherwise&lt;br&gt;&lt;br&gt;If bleed&lt;br&gt;RoundDown(FinalMax / Aura)&lt;br&gt;&lt;br&gt;If not a bleed&lt;br&gt;RoundDown(FinalMax / Aura * 1.5)" style="text;html=1;strokeColor=default;fillColor=none;align=center;verticalAlign=middle;whiteSpace=wrap;rounded=1;strokeWidth=2;glass=0;fontSize=16;" vertex="1" parent="1">
          <mxGeometry x="480" y="80" width="360" height="200" as="geometry" />
        </mxCell>
        <mxCell id="mbmKXw1Up0Pki5837PyY-1" value="" style="endArrow=none;html=1;rounded=0;" edge="1" parent="1">
          <mxGeometry width="50" height="50" relative="1" as="geometry">
            <mxPoint y="320" as="sourcePoint" />
            <mxPoint x="840" y="320" as="targetPoint" />
          </mxGeometry>
        </mxCell>
        <mxCell id="mbmKXw1Up0Pki5837PyY-2" value="2 - Meta Flow" style="text;html=1;strokeColor=none;fillColor=none;align=center;verticalAlign=middle;whiteSpace=wrap;rounded=0;fontStyle=5;fontSize=16;" vertex="1" parent="1">
          <mxGeometry x="10" y="350" width="830" height="30" as="geometry" />
        </mxCell>
        <mxCell id="ZBGy9BMBLQcdmAi6OJzz-1" value="&lt;u style=&quot;font-weight: bold;&quot;&gt;Meta Final Min&lt;/u&gt;&lt;br&gt;&lt;br&gt;&amp;nbsp;Aura = 1.1 if mani, 1 otherwise&lt;br&gt;&lt;br&gt;RoundDown(FinalMin / Aura * 1.625)" style="text;html=1;strokeColor=default;fillColor=none;align=center;verticalAlign=middle;whiteSpace=wrap;rounded=1;strokeWidth=2;glass=0;fontSize=16;" vertex="1" parent="1">
          <mxGeometry x="10" y="400" width="360" height="120" as="geometry" />
        </mxCell>
        <mxCell id="ZBGy9BMBLQcdmAi6OJzz-2" value="&lt;u style=&quot;font-weight: bold;&quot;&gt;Meta Final Max&lt;/u&gt;&lt;br&gt;&lt;br&gt;Aura = 1.1 if mani, 1 otherwise&lt;br&gt;&lt;br&gt;RoundDown(FinalMax / Aura * 1.625)" style="text;html=1;strokeColor=default;fillColor=none;align=center;verticalAlign=middle;whiteSpace=wrap;rounded=1;strokeWidth=2;glass=0;fontSize=16;" vertex="1" parent="1">
          <mxGeometry x="480" y="400" width="360" height="120" as="geometry" />
        </mxCell>
      </root>
    </mxGraphModel>
  </diagram>
  <diagram id="cnVr6eRtA-JdVRf8fbnU" name="RangeSpecifics">
    <mxGraphModel dx="2058" dy="1180" grid="1" gridSize="10" guides="1" tooltips="1" connect="1" arrows="1" fold="1" page="1" pageScale="1" pageWidth="850" pageHeight="1100" math="0" shadow="0">
      <root>
        <mxCell id="0" />
        <mxCell id="1" parent="0" />
        <mxCell id="SuxJPgYXg3upi07RPU4i-1" value="&lt;b&gt;&lt;u&gt;1 - Death&#39;s Swiftness&lt;/u&gt;&lt;/b&gt;" style="text;html=1;strokeColor=none;fillColor=none;align=center;verticalAlign=middle;whiteSpace=wrap;rounded=0;fontSize=16;" vertex="1" parent="1">
          <mxGeometry y="10" width="840" height="30" as="geometry" />
        </mxCell>
        <mxCell id="wqVxlopy8zpgNiNMq5pB-1" value="&lt;u style=&quot;font-weight: bold;&quot;&gt;DS Final Max&lt;/u&gt;&lt;br&gt;&lt;br&gt;&amp;nbsp;Aura = 1.1 if reckless, 1 otherwise&lt;br&gt;&lt;br&gt;If bleed&lt;br&gt;RoundDown(FinalMax / Aura)&lt;br&gt;&lt;br&gt;If not a bleed&lt;br&gt;RoundDown(FinalMax / Aura * 1.5)" style="text;html=1;strokeColor=default;fillColor=none;align=center;verticalAlign=middle;whiteSpace=wrap;rounded=1;strokeWidth=2;glass=0;fontSize=16;" vertex="1" parent="1">
          <mxGeometry x="480" y="80" width="360" height="200" as="geometry" />
        </mxCell>
        <mxCell id="wqVxlopy8zpgNiNMq5pB-2" value="&lt;u style=&quot;font-weight: bold;&quot;&gt;DS Final Min&lt;/u&gt;&lt;br&gt;&lt;br&gt;Aura = 1.1 if reckless, 1 otherwise&lt;br&gt;&lt;br&gt;If bleed&lt;br&gt;RoundDown(FinalMin / Aura)&lt;br&gt;&lt;br&gt;If not a bleed&lt;br&gt;RoundDown(FinalMin / Aura * 1.5)" style="text;html=1;strokeColor=default;fillColor=none;align=center;verticalAlign=middle;whiteSpace=wrap;rounded=1;strokeWidth=2;glass=0;fontSize=16;" vertex="1" parent="1">
          <mxGeometry x="10" y="80" width="360" height="200" as="geometry" />
        </mxCell>
        <mxCell id="pbMnd52bfgO4Y_rVtz_M-1" value="" style="endArrow=none;html=1;rounded=0;" edge="1" parent="1">
          <mxGeometry width="50" height="50" relative="1" as="geometry">
            <mxPoint y="320" as="sourcePoint" />
            <mxPoint x="840" y="320" as="targetPoint" />
          </mxGeometry>
        </mxCell>
        <mxCell id="pbMnd52bfgO4Y_rVtz_M-2" value="&lt;b&gt;&lt;u&gt;2 - ECB Spec&lt;/u&gt;&lt;/b&gt;" style="text;html=1;strokeColor=none;fillColor=none;align=center;verticalAlign=middle;whiteSpace=wrap;rounded=0;fontSize=16;" vertex="1" parent="1">
          <mxGeometry y="330" width="840" height="30" as="geometry" />
        </mxCell>
        <mxCell id="pbMnd52bfgO4Y_rVtz_M-3" value="&lt;u style=&quot;font-weight: bold;&quot;&gt;ECB Heal Ranges Min&lt;/u&gt;&lt;br&gt;&lt;br&gt;Low = min(FinalMin, 2000)&lt;br&gt;Med = min(max(FinalMin - 2000, 0), 2000)&lt;br&gt;High = max(FinalMin - 4000, 0)" style="text;html=1;strokeColor=default;fillColor=none;align=center;verticalAlign=middle;whiteSpace=wrap;rounded=1;strokeWidth=2;glass=0;fontSize=16;" vertex="1" parent="1">
          <mxGeometry x="10" y="400" width="360" height="120" as="geometry" />
        </mxCell>
        <mxCell id="pbMnd52bfgO4Y_rVtz_M-4" value="&lt;u style=&quot;font-weight: bold;&quot;&gt;ECB Heal Ranges Max&lt;/u&gt;&lt;br&gt;&lt;br&gt;Low = min(FinalMax, 2000)&lt;br&gt;Med = min(max(FinalMax - 2000, 0), 2000)&lt;br&gt;High = max(FinalMax - 4000, 0)" style="text;html=1;strokeColor=default;fillColor=none;align=center;verticalAlign=middle;whiteSpace=wrap;rounded=1;strokeWidth=2;glass=0;fontSize=16;" vertex="1" parent="1">
          <mxGeometry x="480" y="400" width="360" height="120" as="geometry" />
        </mxCell>
        <mxCell id="ryzPAy3w8ihtlIvqddOH-1" value="&lt;u style=&quot;font-weight: bold;&quot;&gt;Soul Split Heal Min&lt;/u&gt;&lt;br&gt;&lt;br&gt;Low * .1&lt;br&gt;+&lt;br&gt;Med * .05&lt;br&gt;+&lt;br&gt;High * .0125" style="text;html=1;strokeColor=default;fillColor=none;align=center;verticalAlign=middle;whiteSpace=wrap;rounded=1;strokeWidth=2;glass=0;fontSize=16;" vertex="1" parent="1">
          <mxGeometry x="10" y="600" width="360" height="160" as="geometry" />
        </mxCell>
        <mxCell id="ryzPAy3w8ihtlIvqddOH-2" value="" style="endArrow=classic;html=1;rounded=0;exitX=0.5;exitY=1;exitDx=0;exitDy=0;entryX=0.5;entryY=0;entryDx=0;entryDy=0;" edge="1" parent="1" source="pbMnd52bfgO4Y_rVtz_M-3" target="ryzPAy3w8ihtlIvqddOH-1">
          <mxGeometry width="50" height="50" relative="1" as="geometry">
            <mxPoint x="400" y="420" as="sourcePoint" />
            <mxPoint x="450" y="370" as="targetPoint" />
          </mxGeometry>
        </mxCell>
        <mxCell id="ryzPAy3w8ihtlIvqddOH-3" value="&lt;u style=&quot;font-weight: bold;&quot;&gt;ECB Spec Min&lt;/u&gt;&lt;br&gt;&lt;br&gt;SSHealMin * 4&lt;br&gt;&lt;br&gt;If vuln&lt;br&gt;* 1.1" style="text;html=1;strokeColor=default;fillColor=none;align=center;verticalAlign=middle;whiteSpace=wrap;rounded=1;strokeWidth=2;glass=0;fontSize=16;" vertex="1" parent="1">
          <mxGeometry x="10" y="840" width="360" height="120" as="geometry" />
        </mxCell>
        <mxCell id="ryzPAy3w8ihtlIvqddOH-4" value="" style="endArrow=classic;html=1;rounded=0;exitX=0.5;exitY=1;exitDx=0;exitDy=0;entryX=0.5;entryY=0;entryDx=0;entryDy=0;" edge="1" parent="1" source="ryzPAy3w8ihtlIvqddOH-1" target="ryzPAy3w8ihtlIvqddOH-3">
          <mxGeometry width="50" height="50" relative="1" as="geometry">
            <mxPoint x="400" y="560" as="sourcePoint" />
            <mxPoint x="450" y="510" as="targetPoint" />
          </mxGeometry>
        </mxCell>
        <mxCell id="ryzPAy3w8ihtlIvqddOH-5" value="&lt;u style=&quot;font-weight: bold;&quot;&gt;ECB Final Min&lt;/u&gt;&lt;br&gt;&lt;br&gt;ECBSpecMin + FinalMin" style="text;html=1;strokeColor=default;fillColor=none;align=center;verticalAlign=middle;whiteSpace=wrap;rounded=1;strokeWidth=2;glass=0;fontSize=16;" vertex="1" parent="1">
          <mxGeometry x="10" y="1040" width="360" height="120" as="geometry" />
        </mxCell>
        <mxCell id="ryzPAy3w8ihtlIvqddOH-6" value="" style="endArrow=classic;html=1;rounded=0;exitX=0.5;exitY=1;exitDx=0;exitDy=0;entryX=0.5;entryY=0;entryDx=0;entryDy=0;" edge="1" parent="1" source="ryzPAy3w8ihtlIvqddOH-3" target="ryzPAy3w8ihtlIvqddOH-5">
          <mxGeometry width="50" height="50" relative="1" as="geometry">
            <mxPoint x="400" y="810" as="sourcePoint" />
            <mxPoint x="450" y="760" as="targetPoint" />
          </mxGeometry>
        </mxCell>
        <mxCell id="ryzPAy3w8ihtlIvqddOH-7" value="" style="endArrow=classic;html=1;rounded=0;exitX=0.5;exitY=1;exitDx=0;exitDy=0;" edge="1" parent="1" source="pbMnd52bfgO4Y_rVtz_M-4" target="ryzPAy3w8ihtlIvqddOH-8">
          <mxGeometry width="50" height="50" relative="1" as="geometry">
            <mxPoint x="400" y="760" as="sourcePoint" />
            <mxPoint x="450" y="560" as="targetPoint" />
          </mxGeometry>
        </mxCell>
        <mxCell id="ryzPAy3w8ihtlIvqddOH-8" value="&lt;u style=&quot;font-weight: bold;&quot;&gt;Soul Split Heal Max&lt;/u&gt;&lt;br&gt;&lt;br&gt;Low * .1&lt;br&gt;+&lt;br&gt;Med * .05&lt;br&gt;+&lt;br&gt;High * .0125&lt;br&gt;&lt;br&gt;If Souls or EoF&lt;br&gt;* 1.5" style="text;html=1;strokeColor=default;fillColor=none;align=center;verticalAlign=middle;whiteSpace=wrap;rounded=1;strokeWidth=2;glass=0;fontSize=16;" vertex="1" parent="1">
          <mxGeometry x="480" y="560" width="360" height="200" as="geometry" />
        </mxCell>
        <mxCell id="ryzPAy3w8ihtlIvqddOH-9" value="&lt;u style=&quot;font-weight: bold;&quot;&gt;ECB Spec Max&lt;/u&gt;&lt;br&gt;&lt;br&gt;SSHealMax * 4&lt;br&gt;&lt;br&gt;If vuln&lt;br&gt;* 1.1" style="text;html=1;strokeColor=default;fillColor=none;align=center;verticalAlign=middle;whiteSpace=wrap;rounded=1;strokeWidth=2;glass=0;fontSize=16;" vertex="1" parent="1">
          <mxGeometry x="480" y="840" width="360" height="120" as="geometry" />
        </mxCell>
        <mxCell id="ryzPAy3w8ihtlIvqddOH-10" value="" style="endArrow=classic;html=1;rounded=0;exitX=0.5;exitY=1;exitDx=0;exitDy=0;entryX=0.5;entryY=0;entryDx=0;entryDy=0;" edge="1" parent="1" source="ryzPAy3w8ihtlIvqddOH-8" target="ryzPAy3w8ihtlIvqddOH-9">
          <mxGeometry width="50" height="50" relative="1" as="geometry">
            <mxPoint x="400" y="670" as="sourcePoint" />
            <mxPoint x="450" y="620" as="targetPoint" />
          </mxGeometry>
        </mxCell>
        <mxCell id="ryzPAy3w8ihtlIvqddOH-11" value="" style="endArrow=classic;html=1;rounded=0;exitX=0.5;exitY=1;exitDx=0;exitDy=0;" edge="1" parent="1" source="ryzPAy3w8ihtlIvqddOH-9" target="ryzPAy3w8ihtlIvqddOH-12">
          <mxGeometry width="50" height="50" relative="1" as="geometry">
            <mxPoint x="400" y="620" as="sourcePoint" />
            <mxPoint x="450" y="570" as="targetPoint" />
          </mxGeometry>
        </mxCell>
        <mxCell id="ryzPAy3w8ihtlIvqddOH-12" value="&lt;u style=&quot;font-weight: bold;&quot;&gt;ECB Final Max&lt;/u&gt;&lt;br&gt;&lt;br&gt;ECBSpecMax + FinalMax" style="text;html=1;strokeColor=default;fillColor=none;align=center;verticalAlign=middle;whiteSpace=wrap;rounded=1;strokeWidth=2;glass=0;fontSize=16;" vertex="1" parent="1">
          <mxGeometry x="480" y="1040" width="360" height="120" as="geometry" />
        </mxCell>
        <mxCell id="ryzPAy3w8ihtlIvqddOH-13" value="" style="endArrow=none;html=1;rounded=0;" edge="1" parent="1">
          <mxGeometry width="50" height="50" relative="1" as="geometry">
            <mxPoint y="1200" as="sourcePoint" />
            <mxPoint x="840" y="1200" as="targetPoint" />
          </mxGeometry>
        </mxCell>
        <mxCell id="ryzPAy3w8ihtlIvqddOH-14" value="&lt;b&gt;&lt;u&gt;3 - ECB Spec inside DS&lt;/u&gt;&lt;/b&gt;" style="text;html=1;strokeColor=none;fillColor=none;align=center;verticalAlign=middle;whiteSpace=wrap;rounded=0;fontSize=16;" vertex="1" parent="1">
          <mxGeometry y="1230" width="840" height="30" as="geometry" />
        </mxCell>
        <mxCell id="ryzPAy3w8ihtlIvqddOH-15" value="Run through normal DS calculations" style="text;html=1;strokeColor=default;fillColor=none;align=center;verticalAlign=middle;whiteSpace=wrap;rounded=1;strokeWidth=2;glass=0;fontSize=16;" vertex="1" parent="1">
          <mxGeometry x="245" y="1280" width="360" height="120" as="geometry" />
        </mxCell>
        <mxCell id="ryzPAy3w8ihtlIvqddOH-16" value="Run through normal ECB calculations using DS Final Min/Max as starting points" style="text;html=1;strokeColor=default;fillColor=none;align=center;verticalAlign=middle;whiteSpace=wrap;rounded=1;strokeWidth=2;glass=0;fontSize=16;" vertex="1" parent="1">
          <mxGeometry x="240" y="1480" width="360" height="120" as="geometry" />
        </mxCell>
        <mxCell id="ryzPAy3w8ihtlIvqddOH-17" value="" style="endArrow=classic;html=1;rounded=0;exitX=0.5;exitY=1;exitDx=0;exitDy=0;entryX=0.5;entryY=0;entryDx=0;entryDy=0;" edge="1" parent="1" source="ryzPAy3w8ihtlIvqddOH-15" target="ryzPAy3w8ihtlIvqddOH-16">
          <mxGeometry width="50" height="50" relative="1" as="geometry">
            <mxPoint x="400" y="1300" as="sourcePoint" />
            <mxPoint x="450" y="1250" as="targetPoint" />
          </mxGeometry>
        </mxCell>
      </root>
    </mxGraphModel>
  </diagram>
</mxfile>
